Coordinates
version=1
nRows=17
nColumns=24
inDegrees=yes

Units are S.I. units (second, meters, Newtons, ...)
Angles are in degrees.

endheader
time	pelvis_tilt	pelvis_list	pelvis_rotation	pelvis_tx	pelvis_ty	pelvis_tz	hip_flexion_r	hip_adduction_r	hip_rotation_r	knee_angle_r	ankle_angle_r	subtalar_angle_r	mtp_angle_r	hip_flexion_l	hip_adduction_l	hip_rotation_l	knee_angle_l	ankle_angle_l	subtalar_angle_l	mtp_angle_l	lumbar_extension	lumbar_bending	lumbar_rotation
      3.56500000	     -4.90702023	     -4.29360642	     -6.10915345	     -0.95695986	     -0.03626757	     -0.08252150	    -10.41783355	      8.76352158	      9.16750432	    -24.25140807	      0.09393495	     16.36876499	     23.14867644	     35.27962692	     -3.66493033	     -9.89075207	    -15.01043723	      6.68142311	     14.46782429	     -8.50499898	      5.33243578	      3.56719987	      5.69709262
      3.57000000	     -4.99867307	     -3.89042840	     -6.20101130	     -0.94897305	     -0.03681765	     -0.08290830	    -10.12911232	      8.12677903	      8.67305516	    -25.35023991	     -0.80368401	     17.59195495	     23.84336298	     35.16639645	     -3.20960523	    -10.07897214	    -15.51903002	      5.96550542	     13.45673593	     -8.62498896	      5.65063697	      3.10587526	      5.65324051
      3.57500000	     -5.02779640	     -3.47799833	     -6.20289329	     -0.94106595	     -0.03731062	     -0.08351356	     -9.85229791	      7.43814583	      7.96346204	    -26.43656873	     -1.95401141	     18.81840418	     25.06550724	     34.99405600	     -2.64689328	     -9.98842888	    -15.96339722	      5.04023186	     12.11350072	     -8.65294620	      5.87711011	      2.62701501	      5.47663422
      3.58000000	     -5.07751810	     -2.99434640	     -6.17629521	     -0.93315536	     -0.03768670	     -0.08408326	     -9.51185574	      6.66738620	      7.24156555	    -27.50107122	     -3.39921223	     19.94831470	     26.65358104	     34.83020269	     -2.00802391	     -9.85667681	    -16.32804698	      3.86888930	     10.81421750	     -8.57972104	      6.13168278	      2.05794686	      5.33030492
      3.58500000	     -5.15830119	     -2.44140389	     -6.12740409	     -0.92503255	     -0.03800801	     -0.08466796	     -9.13615491	      5.80963458	      6.53032733	    -28.50393092	     -5.13652987	     20.95912842	     28.53882472	     34.68209965	     -1.28150200	     -9.67865954	    -16.64563995	      2.64044549	      9.46547761	     -8.37037079	      6.46925659	      1.40852865	      5.10746832
      3.59000000	     -5.34094972	     -1.80896218	     -6.21063907	     -0.91709911	     -0.03835943	     -0.08506903	     -8.50335308	      4.85936221	      6.02136808	    -29.79405452	     -6.57868391	     22.42610769	     29.51731493	     34.70031540	     -0.59637665	     -9.75949174	    -17.06820199	      1.49815781	      8.40389954	     -8.54917612	      6.88827254	      0.69831715	      5.04401307
      3.59500000	     -5.40749183	     -1.24883466	     -6.08568127	     -0.90921592	     -0.03861086	     -0.08582707	     -8.00868018	      3.94898558	      5.19046236	    -30.89064717	     -8.70549430	     23.40537211	     31.57795567	     34.61196573	      0.22055509	     -9.20657465	    -17.46595417	      0.22006496	      6.91346414	     -8.68119134	      7.15041464	      0.03810825	      4.75084329
      3.60000000	     -5.62454434	     -0.59534670	     -6.13028834	     -0.90135715	     -0.03896481	     -0.08635005	     -7.22203367	      2.94205688	      4.69379149	    -32.27492131	    -10.47425726	     24.89008317	     32.51589439	     34.73033829	      0.97357145	     -9.05846513	    -17.98740784	     -0.83679445	      5.81299417	     -9.04030485	      7.59109205	     -0.68277612	      4.63987063
      3.60500000	     -5.78613395	      0.00604687	     -6.04904587	     -0.89368409	     -0.03928896	     -0.08705293	     -6.45929201	      1.97917191	      4.02850634	    -33.62938346	    -12.58381477	     26.01156181	     33.71655399	     34.83358590	      1.78702297	     -8.52719175	    -18.56780951	     -1.90345442	      4.58201105	     -9.63707784	      7.91307374	     -1.36950719	      4.44169258
      3.61000000	     -6.01023690	      0.67454126	     -6.01080930	     -0.88577690	     -0.03964128	     -0.08763070	     -5.60440585	      0.96748741	      3.58114785	    -35.03563176	    -14.72592193	     27.11161241	     34.47902092	     34.97416883	      2.62222390	     -8.11477880	    -19.15035717	     -2.74126654	      3.55015888	    -10.27645338	      8.36945533	     -2.12554788	      4.26440262
      3.61500000	     -6.18285619	      1.27043455	     -5.87786134	     -0.87817788	     -0.04001561	     -0.08836050	     -4.74563741	      0.02750968	      3.03265421	    -36.48506778	    -17.02721302	     27.94260111	     35.25604265	     35.12864037	      3.45143799	     -7.59079723	    -19.84724811	     -3.41207322	      2.60387730	    -11.27792861	      8.68113898	     -2.81669095	      4.02342597
      3.62000000	     -6.41156086	      1.93266554	     -5.82532173	     -0.87040119	     -0.04040142	     -0.08892056	     -3.78092926	     -0.94404236	      2.75101349	    -38.03810755	    -19.20673037	     28.71716638	     35.28185468	     35.26478856	      4.28477106	     -7.14205350	    -20.43585204	     -3.97995604	      1.74783202	    -11.96861990	      9.11259483	     -3.56362398	      3.89541659
      3.62500000	     -6.61042998	      2.54659557	     -5.67904715	     -0.86280925	     -0.04082963	     -0.08964543	     -2.80427385	     -1.85957688	      2.40382979	    -39.65709215	    -21.38209488	     29.26662829	     35.01351016	     35.38993731	      5.13301676	     -6.65387370	    -21.05416490	     -4.42812501	      0.91708185	    -12.71591510	      9.45372599	     -4.27032448	      3.66866323
      3.63000000	     -6.73708937	      3.20565108	     -5.53560691	     -0.85519928	     -0.04119321	     -0.09022025	     -1.87320349	     -2.79653015	      2.10604207	    -41.32684454	    -23.49491212	     29.43601963	     34.45564418	     35.39230524	      5.98549205	     -6.40854256	    -21.59526778	     -4.73246981	      0.33894168	    -13.11717659	      9.72550630	     -5.05820954	      3.43722678
      3.63500000	     -6.97100165	      3.75073668	     -5.26195592	     -0.84779973	     -0.04167694	     -0.09115461	     -0.80103967	     -3.58233779	      1.86548594	    -43.07230527	    -25.40297279	     29.74128696	     33.27459838	     35.49857967	      6.85365539	     -5.78159202	    -22.13563983	     -4.97863172	     -0.48951733	    -13.95805955	     10.04422661	     -5.70078177	      3.08322860
      3.64000000	     -7.10815309	      4.36783993	     -4.99302724	     -0.84041400	     -0.04210506	     -0.09201773	      0.22488971	     -4.46085340	      1.54176563	    -44.94314761	    -27.03246864	     29.65769329	     31.53182851	     35.46666660	      7.75379037	     -5.46427041	    -22.62519858	     -4.96728370	     -0.99885349	    -14.64941593	     10.25938254	     -6.43022977	      2.79986174
      3.64500000	     -7.17954323	      4.94394640	     -4.75591531	     -0.83311696	     -0.04236414	     -0.09282519	      1.19736737	     -5.25770157	      1.33243183	    -46.71944205	    -28.87943203	     29.06252733	     30.25758035	     35.27926469	      8.60311423	     -5.16436487	    -22.96086674	     -5.01001101	     -1.54852263	    -14.81506221	     10.38679144	     -7.11335008	      2.55523951
